<svg xmlns="http://www.w3.org/2000/svg" viewBox="0 0 512 512">
  <defs>
    <linearGradient id="bg" x1="0%" y1="0%" x2="100%" y2="100%">
      <stop offset="0%" style="stop-color:#14b8a6"/>
      <stop offset="100%" style="stop-color:#0d9488"/>
    </linearGradient>
  </defs>
  <!-- Background -->
  <rect width="512" height="512" rx="96" fill="url(#bg)"/>
  <!-- Invoice document -->
  <rect x="120" y="80" width="272" height="352" rx="16" fill="white" opacity="0.95"/>
  <!-- Header line -->
  <rect x="152" y="120" width="120" height="12" rx="6" fill="#14b8a6"/>
  <!-- Content lines -->
  <rect x="152" y="160" width="208" height="8" rx="4" fill="#d1d5db"/>
  <rect x="152" y="184" width="180" height="8" rx="4" fill="#d1d5db"/>
  <rect x="152" y="208" width="160" height="8" rx="4" fill="#d1d5db"/>
  <!-- Divider -->
  <rect x="152" y="248" width="208" height="2" fill="#e5e7eb"/>
  <!-- Line items -->
  <rect x="152" y="272" width="140" height="8" rx="4" fill="#9ca3af"/>
  <rect x="320" y="272" width="40" height="8" rx="4" fill="#14b8a6"/>
  <rect x="152" y="296" width="120" height="8" rx="4" fill="#9ca3af"/>
  <rect x="320" y="296" width="40" height="8" rx="4" fill="#14b8a6"/>
  <rect x="152" y="320" width="100" height="8" rx="4" fill="#9ca3af"/>
  <rect x="320" y="320" width="40" height="8" rx="4" fill="#14b8a6"/>
  <!-- Total section -->
  <rect x="152" y="360" width="208" height="2" fill="#e5e7eb"/>
  <rect x="248" y="380" width="60" height="10" rx="5" fill="#374151"/>
  <rect x="320" y="380" width="40" height="10" rx="5" fill="#14b8a6"/>
</svg>
